<svg width="74" height="17" viewBox="0 0 74 17" fill="none" xmlns="http://www.w3.org/2000/svg">
<g clip-path="url(#clip0_774_4566)">
<path d="M14.9103 5.73822L10.8487 1.70235C10.3677 1.25106 9.79477 0.907428 9.16856 0.694616C7.78089 0.236107 6.39987 0.594006 5.28143 1.70235L1.20983 5.73822C0.755116 6.21558 0.408859 6.78419 0.194427 7.40568C-0.269236 8.78286 0.0913908 10.1534 1.20983 11.2618L5.27644 15.2976C5.75668 15.7491 6.32912 16.0928 6.95494 16.3054C7.33406 16.4326 7.73135 16.4983 8.13154 16.5C9.10707 16.5 10.041 16.091 10.8421 15.2976L14.907 11.2618C15.3623 10.7846 15.7092 10.2159 15.9241 9.59432C16.3861 8.21714 16.0255 6.84821 14.907 5.73822H14.9103ZM8.37252 2.87336C8.67973 2.97111 8.96282 3.13182 9.20346 3.34507L10.405 4.53917L8.06175 6.86305L5.7185 4.53752L6.92668 3.33682C7.25075 3.01685 7.70777 2.67709 8.37584 2.87171L8.37252 2.87336ZM2.39309 8.18745C2.49189 7.88235 2.65441 7.60135 2.87005 7.36279L4.07158 6.17034L6.41483 8.49587L4.06992 10.8214L2.86174 9.62071C2.53767 9.30074 2.19699 8.84718 2.39143 8.18415L2.39309 8.18745ZM7.74765 14.1217C7.44006 14.0248 7.15679 13.864 6.91671 13.65L5.7185 12.4707L8.06175 10.1435L10.405 12.4691L9.19681 13.6698C8.87274 13.9897 8.41739 14.3295 7.74765 14.1349V14.1217ZM13.7304 8.81914C13.6316 9.1239 13.4697 9.4048 13.2551 9.64379L12.0536 10.8214L9.71033 8.49587L12.0536 6.17034L13.2618 7.36939C13.5858 7.68936 13.9265 8.14292 13.7321 8.80594" fill="#00ADE4"/>
<path d="M23.68 14.1828H25.7789V8.4019C25.7789 6.61899 24.6871 5.30284 22.8241 5.30284C21.9167 5.30284 20.9445 5.70198 20.4393 6.43592V2.14771H18.342V14.1778H20.4393V9.61745C20.4393 8.55199 20.9778 7.21935 22.2358 7.21935C23.3443 7.21935 23.68 7.83454 23.68 8.83567V14.1828ZM32.1556 10.7637C32.1556 12.0353 31.2399 12.7297 29.9419 12.7297C29.2921 12.7297 28.7088 12.3174 28.7088 11.656C28.7088 10.9616 29.3254 10.5823 29.9586 10.5328L32.1556 10.3679V10.7637ZM33.9038 14.3163C34.2621 14.3279 34.6173 14.2485 34.9359 14.0854V12.5648C34.8487 12.5851 34.7595 12.5962 34.67 12.5978C34.321 12.5978 34.188 12.4493 34.188 12.0518V8.86371C34.2142 8.27488 34.1291 7.68638 33.9371 7.12863C33.4385 5.83887 32.1722 5.37706 30.6914 5.37706C28.7587 5.37706 27.2098 6.23636 27.0935 8.16935H29.1093C29.1592 7.37603 29.7242 6.94721 30.6914 6.94721C31.873 6.94721 32.1556 7.49148 32.1556 8.3013V8.83073L29.6062 9.0072C27.9577 9.12266 26.6763 10.0644 26.6763 11.7005C26.6763 13.1057 27.7416 14.3939 29.8073 14.3939C31.0388 14.3939 32.0376 13.8001 32.4381 13.1058C32.5045 13.7506 33.0031 14.3114 33.9022 14.3114L33.9038 14.3163ZM40.4433 7.42056C40.5544 7.42137 40.6654 7.42853 40.7757 7.44201V5.49581C40.686 5.49581 40.5962 5.47602 40.5081 5.47602C39.4911 5.47602 38.459 5.88835 38.0602 6.87959L37.8757 5.59147H36.1092V14.1844H38.2081V9.85495C38.2081 8.46623 38.9742 7.42551 40.4383 7.42551L40.4433 7.42056ZM47.0111 14.1877H49.0934V8.44973C49.0934 6.66518 48.0098 5.37706 46.1618 5.37706C45.1647 5.37706 44.131 5.78939 43.6142 6.69651L43.4646 5.58982H41.7213V14.1828H43.802V10.6813C43.802 9.95391 43.7854 9.06163 44.0862 8.38376C44.3687 7.75537 44.8523 7.29356 45.5818 7.29356C46.6803 7.29356 47.0127 7.90546 47.0127 8.91319L47.0111 14.1877ZM55.927 9.03194H52.1845C52.1753 8.54746 52.3343 8.07459 52.6348 7.6927C52.8079 7.47829 53.0291 7.30698 53.2807 7.19244C53.5323 7.0779 53.8074 7.02329 54.084 7.03297C54.3257 7.02015 54.5675 7.05754 54.7939 7.14274C55.0202 7.22794 55.2262 7.35908 55.3985 7.52777C55.7309 7.89227 55.9154 8.38706 55.932 9.03194H55.927ZM58.0127 9.95721C58.0459 8.88351 57.8963 7.90876 57.2632 6.96535C56.5486 5.89165 55.3819 5.38036 54.1056 5.38036C53.5942 5.36555 53.085 5.45461 52.6095 5.64208C52.134 5.82955 51.702 6.11148 51.3402 6.47056C50.5093 7.31336 50.0922 8.5355 50.0922 9.90773C50.0922 11.3129 50.5575 12.5186 51.4217 13.3449C51.7831 13.693 52.211 13.9658 52.6802 14.1474C53.1493 14.3289 53.6504 14.4155 54.1538 14.4021C55.2523 14.4021 56.3342 14.0558 57.0671 13.1965C57.3994 12.799 57.7501 12.1228 57.8 11.6098H55.8057C55.7357 11.8853 55.5915 12.1367 55.3886 12.3372C55.0894 12.634 54.7238 12.7495 54.1239 12.7495C53.6429 12.7479 53.182 12.5583 52.8409 12.2217C52.6254 11.9983 52.458 11.7336 52.3491 11.4437C52.2403 11.1539 52.1922 10.8451 52.2077 10.5361H57.9961C57.9961 10.353 58.0127 9.95721 58.0127 9.95721ZM60.8079 7.99123C60.8129 7.79074 60.8791 7.59648 60.9979 7.43419C61.1166 7.2719 61.2822 7.14924 61.4727 7.08245C61.7596 6.9757 62.0661 6.93072 62.3718 6.95051C62.7854 6.93907 63.1885 7.08009 63.5035 7.34634C63.7212 7.56122 63.8463 7.85154 63.8525 8.15616H65.8351C65.8102 7.49274 65.5371 6.86235 65.069 6.38809C64.4375 5.70857 63.3888 5.37871 62.3568 5.37871C61.2733 5.37871 60.3626 5.69208 59.7261 6.238C59.4419 6.47351 59.2149 6.76965 59.0621 7.10435C58.9093 7.43905 58.8346 7.80366 58.8436 8.171C58.8436 9.2612 59.643 10.2194 60.8246 10.4685C61.5907 10.6334 62.4565 10.6829 63.2227 10.7984C63.7545 10.8808 64.0885 11.2107 64.0885 11.7071C64.0885 12.6489 63.0232 12.7973 62.3236 12.7973C61.7236 12.7973 61.3414 12.6819 61.0074 12.418C60.7772 12.2134 60.6228 11.9381 60.5686 11.6362H58.6076C58.6881 12.314 59.0071 12.9419 59.5084 13.4092C60.2246 14.0871 61.2068 14.3988 62.307 14.3988C63.4886 14.3988 64.5704 14.1019 65.2701 13.4092C65.5187 13.1627 65.7137 12.8682 65.8432 12.544C65.9727 12.2198 66.0338 11.8727 66.0229 11.5241C66.0229 10.1683 65.0258 9.30903 63.6581 9.09462C62.8089 8.96267 62.5928 8.94618 61.8101 8.84722C61.3447 8.78125 60.8129 8.59817 60.8129 7.98793L60.8079 7.99123ZM71.8411 8.15286H73.8171C73.7922 7.48945 73.5191 6.85906 73.051 6.38479C72.4178 5.70858 71.3692 5.37871 70.3438 5.37871C69.2619 5.37871 68.3495 5.69208 67.713 6.238C67.4288 6.47351 67.2019 6.76965 67.0491 7.10435C66.8963 7.43905 66.8216 7.80366 66.8306 8.171C66.8306 9.2612 67.63 10.2194 68.8116 10.4685C69.5777 10.6334 70.4435 10.6829 71.2096 10.7984C71.7414 10.8808 72.0755 11.2107 72.0755 11.7071C72.0755 12.6489 71.0085 12.7973 70.3106 12.7973C69.7106 12.7973 69.3284 12.6819 68.9944 12.418C68.7642 12.2134 68.6097 11.9381 68.5556 11.6362H66.588C66.6683 12.3144 66.988 12.9425 67.4904 13.4092C68.205 14.0871 69.1871 14.3988 70.2873 14.3988C71.4689 14.3988 72.5508 14.1019 73.2504 13.4092C73.4984 13.1624 73.6928 12.8678 73.8217 12.5436C73.9506 12.2194 74.0113 11.8724 73.9999 11.5241C73.9999 10.1683 73.0028 9.30903 71.6351 9.09462C70.7859 8.96267 70.5698 8.94618 69.7871 8.84722C69.3217 8.78125 68.7899 8.59817 68.7899 7.98793C68.7949 7.78744 68.8611 7.59319 68.9798 7.4309C69.0986 7.26861 69.2642 7.14594 69.4547 7.07915C69.7416 6.9724 70.048 6.92743 70.3538 6.94721C70.7673 6.93578 71.1705 7.0768 71.4855 7.34305C71.7036 7.55776 71.8293 7.84805 71.8362 8.15286" fill="white"/>
</g>
<defs>
<clipPath id="clip0_774_4566">
<rect width="74" height="16" fill="white" transform="translate(0 0.5)"/>
</clipPath>
</defs>
</svg>
