<svg width="139" height="20" viewBox="0 0 139 20" fill="none" xmlns="http://www.w3.org/2000/svg">
<path d="M0 0.264256V17.3546C0 17.5866 0.277698 17.706 0.446086 17.5463L5.63401 12.6267C5.73861 12.5275 5.90341 12.5305 6.0044 12.6333L11.1657 17.8902C11.2154 17.9408 11.2833 17.9693 11.3542 17.9693H15.0224C15.2579 17.9693 15.3758 17.6847 15.2093 17.5182L5.99156 8.30047C5.89556 8.20447 5.74244 8.19683 5.63737 8.2828L4.04553 9.58522C3.87299 9.72638 3.61394 9.60363 3.61394 9.38069V4.17936C3.61394 4.03341 3.73225 3.9151 3.87819 3.9151H9.12203C9.3542 3.9151 9.47352 4.19304 9.31361 4.36136L7.99508 5.74929C7.9015 5.84779 7.89787 6.0012 7.98667 6.10402L9.54696 7.91067C9.64905 8.02888 9.83086 8.03322 9.93847 7.92001L13.6488 4.0169C15.0888 2.50217 14.015 0 11.9251 0H0.264255C0.118311 0 0 0.118312 0 0.264256Z" fill="url(#paint0_linear_286_15267)"/>
<path d="M26.0749 6.64947C26.4341 6.09875 26.883 5.66775 27.4218 5.35648C27.9605 5.03323 28.5591 4.87161 29.2176 4.87161V8.12205H28.3736C27.6073 8.12205 27.0327 8.28966 26.6496 8.62488C26.2665 8.94813 26.0749 9.52279 26.0749 10.3489V15.0001H23.004V4.97935H26.0749V6.64947ZM40.1314 9.82808C40.1314 10.1154 40.1135 10.4147 40.0776 10.726H33.1277C33.1756 11.3485 33.3732 11.8274 33.7203 12.1627C34.0795 12.4859 34.5165 12.6475 35.0313 12.6475C35.7975 12.6475 36.3303 12.3243 36.6296 11.6778H39.898C39.7304 12.3363 39.4251 12.9289 38.9821 13.4557C38.5511 13.9824 38.0064 14.3955 37.3479 14.6948C36.6894 14.9941 35.9532 15.1437 35.139 15.1437C34.1573 15.1437 33.2834 14.9342 32.5171 14.5152C31.7509 14.0962 31.1523 13.4976 30.7213 12.7194C30.2903 11.9412 30.0748 11.0313 30.0748 9.98971C30.0748 8.94813 30.2843 8.03824 30.7034 7.26005C31.1344 6.48186 31.733 5.88325 32.4992 5.46423C33.2654 5.0452 34.1454 4.83569 35.139 4.83569C36.1088 4.83569 36.9708 5.03922 37.725 5.44627C38.4793 5.85332 39.0659 6.43397 39.4849 7.18822C39.9159 7.94247 40.1314 8.82242 40.1314 9.82808ZM36.9887 9.01996C36.9887 8.49319 36.8092 8.07416 36.45 7.76288C36.0908 7.45161 35.6419 7.29597 35.1031 7.29597C34.5883 7.29597 34.1513 7.44562 33.7922 7.74493C33.445 8.04423 33.2295 8.46924 33.1457 9.01996H36.9887ZM45.828 15.1437C44.954 15.1437 44.1758 14.9941 43.4934 14.6948C42.811 14.3955 42.2723 13.9884 41.8772 13.4736C41.4821 12.9468 41.2606 12.3602 41.2127 11.7137H44.2477C44.2836 12.0609 44.4452 12.3422 44.7325 12.5577C45.0199 12.7732 45.3731 12.881 45.7921 12.881C46.1752 12.881 46.4685 12.8092 46.672 12.6655C46.8875 12.5098 46.9953 12.3123 46.9953 12.0729C46.9953 11.7855 46.8456 11.576 46.5463 11.4443C46.247 11.3007 45.7621 11.145 45.0917 10.9774C44.3734 10.8098 43.7748 10.6362 43.2959 10.4566C42.817 10.2651 42.404 9.97175 42.0568 9.57667C41.7096 9.16961 41.536 8.62488 41.536 7.94247C41.536 7.3678 41.6916 6.84701 42.0029 6.3801C42.3261 5.90121 42.7931 5.52409 43.4036 5.24873C44.0262 4.97337 44.7625 4.83569 45.6125 4.83569C46.8696 4.83569 47.8573 5.14697 48.5756 5.76952C49.3059 6.39207 49.7249 7.21815 49.8327 8.24776H46.9953C46.9474 7.90056 46.7918 7.6252 46.5284 7.42168C46.277 7.21815 45.9417 7.11639 45.5227 7.11639C45.1635 7.11639 44.8882 7.18822 44.6966 7.33189C44.5051 7.46358 44.4093 7.64915 44.4093 7.88859C44.4093 8.17592 44.5589 8.39142 44.8582 8.53509C45.1695 8.67876 45.6484 8.82242 46.2949 8.96609C47.0372 9.15764 47.6418 9.3492 48.1087 9.54075C48.5756 9.72033 48.9827 10.0196 49.3299 10.4387C49.689 10.8457 49.8746 11.3964 49.8866 12.0908C49.8866 12.6775 49.719 13.2042 49.3837 13.6712C49.0605 14.1261 48.5876 14.4853 47.965 14.7486C47.3544 15.012 46.6421 15.1437 45.828 15.1437ZM54.8362 6.39806C55.1355 5.93114 55.5485 5.55402 56.0753 5.26669C56.6021 4.97935 57.2186 4.83569 57.925 4.83569C58.7511 4.83569 59.4993 5.0452 60.1698 5.46423C60.8402 5.88325 61.367 6.48186 61.7501 7.26005C62.1452 8.03824 62.3427 8.94214 62.3427 9.97175C62.3427 11.0014 62.1452 11.9112 61.7501 12.7014C61.367 13.4796 60.8402 14.0842 60.1698 14.5152C59.4993 14.9342 58.7511 15.1437 57.925 15.1437C57.2306 15.1437 56.614 15.0001 56.0753 14.7127C55.5485 14.4254 55.1355 14.0543 54.8362 13.5993V19.777H51.7653V4.97935H54.8362V6.39806ZM59.218 9.97175C59.218 9.20553 59.0025 8.60692 58.5715 8.17592C58.1525 7.73295 57.6317 7.51147 57.0091 7.51147C56.3985 7.51147 55.8777 7.73295 55.4467 8.17592C55.0277 8.61889 54.8182 9.22349 54.8182 9.98971C54.8182 10.7559 55.0277 11.3605 55.4467 11.8035C55.8777 12.2465 56.3985 12.4679 57.0091 12.4679C57.6197 12.4679 58.1405 12.2465 58.5715 11.8035C59.0025 11.3485 59.218 10.738 59.218 9.97175ZM68.5152 15.1437C67.5334 15.1437 66.6475 14.9342 65.8573 14.5152C65.0792 14.0962 64.4626 13.4976 64.0076 12.7194C63.5647 11.9412 63.3432 11.0313 63.3432 9.98971C63.3432 8.9601 63.5707 8.0562 64.0256 7.27801C64.4805 6.48785 65.1031 5.88325 65.8933 5.46423C66.6834 5.0452 67.5694 4.83569 68.5511 4.83569C69.5328 4.83569 70.4187 5.0452 71.2089 5.46423C71.9991 5.88325 72.6216 6.48785 73.0766 7.27801C73.5315 8.0562 73.759 8.9601 73.759 9.98971C73.759 11.0193 73.5255 11.9292 73.0586 12.7194C72.6037 13.4976 71.9751 14.0962 71.173 14.5152C70.3828 14.9342 69.4969 15.1437 68.5152 15.1437ZM68.5152 12.4859C69.1018 12.4859 69.5986 12.2704 70.0057 11.8394C70.4247 11.4084 70.6342 10.7918 70.6342 9.98971C70.6342 9.18757 70.4307 8.57101 70.0237 8.14001C69.6286 7.70901 69.1377 7.49351 68.5511 7.49351C67.9525 7.49351 67.4556 7.70901 67.0605 8.14001C66.6655 8.55903 66.4679 9.1756 66.4679 9.98971C66.4679 10.7918 66.6595 11.4084 67.0426 11.8394C67.4377 12.2704 67.9285 12.4859 68.5152 12.4859ZM81.4939 4.87161C82.6672 4.87161 83.601 5.25472 84.2954 6.02093C85.0018 6.77518 85.355 7.81676 85.355 9.14567V15.0001H82.3021V9.55871C82.3021 8.88827 82.1285 8.36748 81.7813 7.99634C81.4341 7.6252 80.9672 7.43964 80.3805 7.43964C79.7939 7.43964 79.327 7.6252 78.9798 7.99634C78.6326 8.36748 78.459 8.88827 78.459 9.55871V15.0001H75.3881V4.97935H78.459V6.30827C78.7703 5.8653 79.1893 5.5181 79.7161 5.26669C80.2428 5.0033 80.8355 4.87161 81.4939 4.87161ZM86.8783 9.97175C86.8783 8.94214 87.0699 8.03824 87.453 7.26005C87.8481 6.48186 88.3808 5.88325 89.0513 5.46423C89.7217 5.0452 90.47 4.83569 91.2961 4.83569C91.9545 4.83569 92.5531 4.97337 93.0919 5.24873C93.6426 5.52409 94.0736 5.89523 94.3849 6.36214V1.71095H97.4557V15.0001H94.3849V13.5634C94.0975 14.0423 93.6845 14.4254 93.1458 14.7127C92.619 15.0001 92.0024 15.1437 91.2961 15.1437C90.47 15.1437 89.7217 14.9342 89.0513 14.5152C88.3808 14.0842 87.8481 13.4796 87.453 12.7014C87.0699 11.9112 86.8783 11.0014 86.8783 9.97175ZM94.3849 9.98971C94.3849 9.22349 94.1694 8.61889 93.7384 8.17592C93.3193 7.73295 92.8045 7.51147 92.194 7.51147C91.5834 7.51147 91.0626 7.73295 90.6316 8.17592C90.2126 8.60692 90.0031 9.20553 90.0031 9.97175C90.0031 10.738 90.2126 11.3485 90.6316 11.8035C91.0626 12.2465 91.5834 12.4679 92.194 12.4679C92.8045 12.4679 93.3193 12.2465 93.7384 11.8035C94.1694 11.3605 94.3849 10.7559 94.3849 9.98971Z" fill="#22222A"/>
<path d="M103.308 3.97935V5.45193C103.943 4.39838 104.955 3.87161 106.343 3.87161C107.493 3.87161 108.42 4.25472 109.127 5.02093C109.845 5.78715 110.204 6.82873 110.204 8.14567V14.0001H107.151V8.55871C107.151 7.91221 106.978 7.41537 106.631 7.06817C106.295 6.70901 105.828 6.52943 105.23 6.52943C104.631 6.52943 104.158 6.70901 103.811 7.06817C103.476 7.41537 103.308 7.91221 103.308 8.55871V14.0001H100.237V3.97935H103.308ZM118.828 10.8574C119.235 10.4264 119.438 9.80382 119.438 8.98971C119.438 8.1756 119.229 7.55903 118.81 7.14001C118.391 6.70901 117.894 6.49351 117.319 6.49351C116.745 6.49351 116.248 6.70901 115.829 7.14001C115.422 7.55903 115.218 8.1756 115.218 8.98971C115.218 9.80382 115.428 10.4264 115.847 10.8574C116.278 11.2884 116.781 11.5039 117.355 11.5039C117.93 11.5039 118.421 11.2884 118.828 10.8574ZM113.602 12.7071C112.596 11.7613 112.093 10.5162 112.093 8.97175C112.093 7.42734 112.596 6.19421 113.602 5.27235C114.608 4.33852 115.853 3.87161 117.337 3.87161C118.822 3.87161 120.061 4.33852 121.055 5.27235C122.06 6.19421 122.563 7.42734 122.563 8.97175C122.563 10.5162 122.066 11.7613 121.073 12.7071C120.079 13.6529 118.84 14.1258 117.355 14.1258C115.871 14.1258 114.62 13.6529 113.602 12.7071ZM135.804 3.97935H138.695L135.696 14.0001H132.392L130.991 8.07384L129.573 14.0001H126.268L123.269 3.97935H126.34L127.902 11.019L129.447 3.97935H132.697L134.242 11.019L135.804 3.97935Z" fill="url(#paint1_linear_286_15267)"/>
<defs>
<linearGradient id="paint0_linear_286_15267" x1="1.58794" y1="1.42938" x2="15.4735" y2="15.1256" gradientUnits="userSpaceOnUse">
<stop stop-color="#A66FFF"/>
<stop offset="1" stop-color="#6500CB"/>
</linearGradient>
<linearGradient id="paint1_linear_286_15267" x1="102.527" y1="1.43188" x2="112.837" y2="24.6806" gradientUnits="userSpaceOnUse">
<stop stop-color="#A66FFF"/>
<stop offset="1" stop-color="#6500CB"/>
</linearGradient>
</defs>
</svg>
