<svg width="174" height="24" viewBox="0 0 174 24" fill="none" xmlns="http://www.w3.org/2000/svg">
<path d="M0 0.345682V22.7022C0 23.0057 0.362184 23.1619 0.5818 22.953L7.34806 16.5175C7.48449 16.3877 7.69942 16.3916 7.83114 16.5262L14.5627 23.4029C14.6275 23.4691 14.7161 23.5064 14.8086 23.5064H19.5928C19.8998 23.5064 20.0536 23.134 19.8365 22.9163L7.81439 10.8582C7.68919 10.7326 7.48948 10.7226 7.35244 10.8351L5.27631 12.5388C5.05128 12.7235 4.71342 12.5629 4.71342 12.2713V5.46718C4.71342 5.27627 4.86772 5.1215 5.05807 5.1215H11.8972C12.2001 5.1215 12.3557 5.48508 12.1471 5.70527L10.4274 7.52088C10.3054 7.64973 10.3007 7.8504 10.4165 7.98491L12.4515 10.3483C12.5846 10.5029 12.8217 10.5086 12.9621 10.3605L17.8013 5.25466C19.6793 3.27318 18.2789 0 15.5531 0H0.344649C0.154305 0 0 0.154767 0 0.345682Z" fill="url(#paint0_linear_652_58974)"/>
<path d="M32.9535 9.34378C33.3533 8.72893 33.853 8.24774 34.4527 7.90021C35.0524 7.53932 35.7187 7.35888 36.4517 7.35888V10.9878H35.5122C34.6593 10.9878 34.0196 11.175 33.5932 11.5492C33.1667 11.9101 32.9535 12.5517 32.9535 13.474V18.6668H29.5353V7.47917H32.9535V9.34378Z" fill="#0B0B0D"/>
<path d="M48.6001 12.8926C48.6001 13.2133 48.5801 13.5475 48.5401 13.895H40.8041C40.8574 14.5901 41.0773 15.1247 41.4638 15.499C41.8636 15.8599 42.35 16.0403 42.923 16.0403C43.7759 16.0403 44.369 15.6794 44.7021 14.9577H48.3402C48.1537 15.6928 47.8138 16.3544 47.3208 16.9426C46.841 17.5307 46.2347 17.9918 45.5017 18.326C44.7688 18.6601 43.9492 18.8272 43.043 18.8272C41.9502 18.8272 40.9774 18.5933 40.1245 18.1255C39.2716 17.6577 38.6053 16.9893 38.1255 16.1205C37.6458 15.2517 37.4059 14.2359 37.4059 13.073C37.4059 11.9101 37.6391 10.8943 38.1055 10.0255C38.5853 9.15665 39.2516 8.48833 40.1045 8.02051C40.9574 7.55269 41.9369 7.31878 43.043 7.31878C44.1224 7.31878 45.0819 7.546 45.9215 8.00046C46.7611 8.45492 47.4141 9.10319 47.8805 9.94527C48.3602 10.7873 48.6001 11.7698 48.6001 12.8926ZM45.1019 11.9903C45.1019 11.4022 44.902 10.9344 44.5022 10.5869C44.1024 10.2393 43.6027 10.0656 43.003 10.0656C42.43 10.0656 41.9435 10.2326 41.5438 10.5668C41.1573 10.901 40.9174 11.3755 40.8241 11.9903H45.1019Z" fill="#0B0B0D"/>
<path d="M54.941 18.8272C53.9682 18.8272 53.102 18.6601 52.3424 18.326C51.5828 17.9918 50.9831 17.5374 50.5433 16.9626C50.1035 16.3745 49.857 15.7195 49.8037 14.9978H53.182C53.2219 15.3854 53.4018 15.6995 53.7217 15.9401C54.0415 16.1807 54.4346 16.301 54.9011 16.301C55.3275 16.301 55.654 16.2208 55.8806 16.0604C56.1204 15.8866 56.2404 15.6661 56.2404 15.3987C56.2404 15.078 56.0738 14.844 55.7406 14.697C55.4075 14.5366 54.8678 14.3629 54.1215 14.1757C53.3219 13.9886 52.6556 13.7948 52.1225 13.5943C51.5894 13.3804 51.1297 13.0529 50.7432 12.6119C50.3568 12.1574 50.1635 11.5492 50.1635 10.7873C50.1635 10.1458 50.3368 9.56433 50.6833 9.04304C51.0431 8.50838 51.5628 8.08734 52.2424 7.77991C52.9354 7.47249 53.755 7.31878 54.7012 7.31878C56.1004 7.31878 57.1999 7.6663 57.9995 8.36135C58.8124 9.0564 59.2788 9.97868 59.3987 11.1282H56.2404C56.1871 10.7406 56.0138 10.4331 55.7206 10.2059C55.4408 9.97868 55.0676 9.86507 54.6012 9.86507C54.2014 9.86507 53.8949 9.94527 53.6817 10.1057C53.4685 10.2527 53.3619 10.4599 53.3619 10.7272C53.3619 11.048 53.5284 11.2886 53.8616 11.449C54.2081 11.6094 54.7411 11.7698 55.4608 11.9302C56.287 12.144 56.96 12.3579 57.4797 12.5718C57.9995 12.7723 58.4526 13.1064 58.839 13.5742C59.2388 14.0287 59.4454 14.6435 59.4587 15.4188C59.4587 16.0737 59.2721 16.6619 58.899 17.1832C58.5392 17.6911 58.0128 18.0921 57.3198 18.3861C56.6402 18.6802 55.8472 18.8272 54.941 18.8272Z" fill="#0B0B0D"/>
<path d="M64.9682 9.06309C65.3014 8.5418 65.7611 8.12076 66.3475 7.79996C66.9339 7.47917 67.6202 7.31878 68.4064 7.31878C69.326 7.31878 70.1589 7.55269 70.9051 8.02051C71.6514 8.48833 72.2378 9.15665 72.6642 10.0255C73.104 10.8943 73.3239 11.9034 73.3239 13.0529C73.3239 14.2025 73.104 15.2183 72.6642 16.1005C72.2378 16.9693 71.6514 17.6443 70.9051 18.1255C70.1589 18.5933 69.326 18.8272 68.4064 18.8272C67.6335 18.8272 66.9472 18.6668 66.3475 18.346C65.7611 18.0252 65.3014 17.6109 64.9682 17.103V24H61.55V7.47917H64.9682V9.06309ZM69.8457 13.0529C69.8457 12.1975 69.6058 11.5292 69.1261 11.048C68.6596 10.5534 68.0799 10.3062 67.387 10.3062C66.7073 10.3062 66.1276 10.5534 65.6479 11.048C65.1814 11.5425 64.9482 12.2176 64.9482 13.073C64.9482 13.9284 65.1814 14.6034 65.6479 15.098C66.1276 15.5926 66.7073 15.8398 67.387 15.8398C68.0666 15.8398 68.6463 15.5926 69.1261 15.098C69.6058 14.5901 69.8457 13.9084 69.8457 13.0529Z" fill="#0B0B0D"/>
<path d="M80.1946 18.8272C79.1018 18.8272 78.1156 18.5933 77.2361 18.1255C76.3699 17.6577 75.6836 16.9893 75.1772 16.1205C74.6841 15.2517 74.4375 14.2359 74.4375 13.073C74.4375 11.9235 74.6907 10.9143 75.1971 10.0455C75.7035 9.16333 76.3965 8.48833 77.2761 8.02051C78.1556 7.55269 79.1418 7.31878 80.2345 7.31878C81.3273 7.31878 82.3135 7.55269 83.193 8.02051C84.0726 8.48833 84.7655 9.16333 85.2719 10.0455C85.7783 10.9143 86.0315 11.9235 86.0315 13.073C86.0315 14.2225 85.7717 15.2383 85.2519 16.1205C84.7455 16.9893 84.0459 17.6577 83.153 18.1255C82.2735 18.5933 81.2873 18.8272 80.1946 18.8272ZM80.1946 15.8599C80.8476 15.8599 81.4006 15.6193 81.8537 15.1381C82.3201 14.6569 82.5533 13.9685 82.5533 13.073C82.5533 12.1775 82.3268 11.4891 81.8737 11.0079C81.4339 10.5267 80.8875 10.2861 80.2345 10.2861C79.5682 10.2861 79.0152 10.5267 78.5754 11.0079C78.1356 11.4757 77.9157 12.1641 77.9157 13.073C77.9157 13.9685 78.129 14.6569 78.5554 15.1381C78.9952 15.6193 79.5416 15.8599 80.1946 15.8599Z" fill="#0B0B0D"/>
<path d="M94.6415 7.35888C95.9475 7.35888 96.9869 7.7866 97.7599 8.64205C98.5461 9.48413 98.9393 10.647 98.9393 12.1307V18.6668H95.541V12.5918C95.541 11.8433 95.3478 11.2619 94.9613 10.8475C94.5748 10.4331 94.0551 10.226 93.4021 10.226C92.7491 10.226 92.2294 10.4331 91.8429 10.8475C91.4565 11.2619 91.2632 11.8433 91.2632 12.5918V18.6668H87.845V7.47917H91.2632V8.96284C91.6097 8.46828 92.0761 8.08066 92.6625 7.79996C93.2489 7.50591 93.9085 7.35888 94.6415 7.35888Z" fill="#0B0B0D"/>
<path d="M100.635 13.0529C100.635 11.9034 100.848 10.8943 101.275 10.0255C101.714 9.15665 102.307 8.48833 103.054 8.02051C103.8 7.55269 104.633 7.31878 105.552 7.31878C106.285 7.31878 106.952 7.47249 107.551 7.77991C108.164 8.08734 108.644 8.5017 108.991 9.02299V3.83016H112.409V18.6668H108.991V17.0629C108.671 17.5975 108.211 18.0252 107.611 18.346C107.025 18.6668 106.339 18.8272 105.552 18.8272C104.633 18.8272 103.8 18.5933 103.054 18.1255C102.307 17.6443 101.714 16.9693 101.275 16.1005C100.848 15.2183 100.635 14.2025 100.635 13.0529ZM108.991 13.073C108.991 12.2176 108.751 11.5425 108.271 11.048C107.805 10.5534 107.232 10.3062 106.552 10.3062C105.872 10.3062 105.293 10.5534 104.813 11.048C104.346 11.5292 104.113 12.1975 104.113 13.0529C104.113 13.9084 104.346 14.5901 104.813 15.098C105.293 15.5926 105.872 15.8398 106.552 15.8398C107.232 15.8398 107.805 15.5926 108.271 15.098C108.751 14.6034 108.991 13.9284 108.991 13.073Z" fill="#0B0B0D"/>
<path d="M121.678 7.35888C122.984 7.35888 124.024 7.7866 124.797 8.64205C125.583 9.48413 125.976 10.647 125.976 12.1307V18.6668H122.578V12.5918C122.578 11.8433 122.385 11.2619 121.998 10.8475C121.612 10.4331 121.092 10.226 120.439 10.226C119.786 10.226 119.266 10.4331 118.88 10.8475C118.493 11.2619 118.3 11.8433 118.3 12.5918V18.6668H114.882V7.47917H118.3V8.96284C118.647 8.46828 119.113 8.08066 119.699 7.79996C120.286 7.50591 120.945 7.35888 121.678 7.35888Z" fill="url(#paint1_linear_652_58974)"/>
<path d="M133.429 18.8272C132.336 18.8272 131.35 18.5933 130.47 18.1255C129.604 17.6577 128.918 16.9893 128.411 16.1205C127.918 15.2517 127.672 14.2359 127.672 13.073C127.672 11.9235 127.925 10.9143 128.431 10.0455C128.938 9.16333 129.631 8.48833 130.51 8.02051C131.39 7.55269 132.376 7.31878 133.469 7.31878C134.562 7.31878 135.548 7.55269 136.427 8.02051C137.307 8.48833 138 9.16333 138.506 10.0455C139.013 10.9143 139.266 11.9235 139.266 13.073C139.266 14.2225 139.006 15.2383 138.486 16.1205C137.98 16.9893 137.28 17.6577 136.387 18.1255C135.508 18.5933 134.522 18.8272 133.429 18.8272ZM133.429 15.8599C134.082 15.8599 134.635 15.6193 135.088 15.1381C135.554 14.6569 135.788 13.9685 135.788 13.073C135.788 12.1775 135.561 11.4891 135.108 11.0079C134.668 10.5267 134.122 10.2861 133.469 10.2861C132.802 10.2861 132.249 10.5267 131.81 11.0079C131.37 11.4757 131.15 12.1641 131.15 13.073C131.15 13.9685 131.363 14.6569 131.79 15.1381C132.229 15.6193 132.776 15.8599 133.429 15.8599Z" fill="url(#paint2_linear_652_58974)"/>
<path d="M157.091 7.47917L154.072 18.6668H150.294L148.535 11.4089L146.716 18.6668H142.958L139.92 7.47917H143.338L144.917 15.4789L146.796 7.47917H150.414L152.313 15.4388L153.873 7.47917H157.091Z" fill="url(#paint3_linear_652_58974)"/>
<path d="M170.372 9.73122L168.194 4.4585H169.29L170.701 8.06917L172.12 4.4585H173.216L171.031 9.73122H170.372ZM167.857 9.73122V4.4585H169.054V9.73122H167.857ZM172.356 9.73122V4.4585H173.545V9.73122H172.356ZM164.146 9.73122V4.91699H165.335V9.73122H164.146ZM162.542 5.4543V4.4585H166.94V5.4543H162.542Z" fill="black"/>
<defs>
<linearGradient id="paint0_linear_652_58974" x1="14.281" y1="1.90909" x2="19.7423" y2="38.1817" gradientUnits="userSpaceOnUse">
<stop stop-color="#A66FFF"/>
<stop offset="1" stop-color="#6500CB"/>
</linearGradient>
<linearGradient id="paint1_linear_652_58974" x1="14.281" y1="1.90909" x2="19.7423" y2="38.1817" gradientUnits="userSpaceOnUse">
<stop stop-color="#A66FFF"/>
<stop offset="1" stop-color="#6500CB"/>
</linearGradient>
<linearGradient id="paint2_linear_652_58974" x1="14.281" y1="1.90909" x2="19.7423" y2="38.1817" gradientUnits="userSpaceOnUse">
<stop stop-color="#A66FFF"/>
<stop offset="1" stop-color="#6500CB"/>
</linearGradient>
<linearGradient id="paint3_linear_652_58974" x1="14.281" y1="1.90909" x2="19.7423" y2="38.1817" gradientUnits="userSpaceOnUse">
<stop stop-color="#A66FFF"/>
<stop offset="1" stop-color="#6500CB"/>
</linearGradient>
</defs>
</svg>
